<svg width="360" height="360" viewBox="0 0 360 360" fill="none" xmlns="http://www.w3.org/2000/svg">
<rect width="360" height="360" fill="white"/>
<path d="M48.6923 286.163C48.6923 286.53 48.6923 286.896 48.6923 287.268C48.6923 290.729 48.697 294.191 48.6875 297.652C48.6875 298.524 48.6733 298.533 47.8328 298.538C46.5412 298.548 45.2497 298.529 43.9628 298.548C43.545 298.552 43.3123 298.438 43.355 297.976C43.374 297.748 43.355 297.519 43.355 297.291C43.355 290.71 43.355 284.13 43.355 277.545C43.355 277.355 43.3693 277.164 43.355 276.974C43.3076 276.455 43.4832 276.164 44.0531 276.236C44.091 276.24 44.129 276.236 44.167 276.236C45.2639 276.269 46.4605 275.94 47.4339 276.359C48.3741 276.764 48.849 277.897 49.5137 278.721C51.9449 281.74 54.3524 284.778 56.7741 287.806C57.0067 288.101 57.1919 288.444 57.5386 288.644C57.8757 288.482 57.7143 288.177 57.719 287.949C57.7285 284.411 57.7238 280.873 57.7285 277.335C57.7285 276.25 57.7333 276.245 58.8586 276.24C59.9603 276.236 61.0619 276.231 62.1588 276.24C63.1322 276.25 63.1417 276.255 63.1417 277.274C63.1465 281.268 63.1417 285.263 63.1417 289.258C63.1417 292.072 63.1465 294.886 63.137 297.705C63.137 298.519 63.118 298.538 62.3345 298.543C61.1949 298.548 59.9555 298.805 58.9536 298.429C57.9849 298.067 57.5006 296.843 56.8121 295.986C54.2907 292.843 51.793 289.682 49.2858 286.53C49.1719 286.387 49.0436 286.249 48.9202 286.111C48.849 286.125 48.7682 286.144 48.6923 286.163Z" fill="#FF6600"/>
<path d="M71.67 287.377C71.67 284.03 71.67 280.678 71.67 277.331C71.67 276.25 71.6747 276.236 72.6956 276.236C77.2921 276.231 81.8838 276.231 86.4803 276.236C87.4015 276.236 87.4063 276.25 87.4158 277.188C87.4253 278.14 87.3873 279.092 87.43 280.04C87.4537 280.611 87.2258 280.788 86.6987 280.73C86.4376 280.702 86.1669 280.726 85.901 280.726C83.3179 280.726 80.7395 280.721 78.1563 280.73C77.3396 280.73 77.3301 280.749 77.3206 281.521C77.3064 282.397 77.3064 283.273 77.3206 284.144C77.3301 284.959 77.3396 284.978 78.1373 284.978C80.4926 284.987 82.8478 284.973 85.1982 284.987C87.0786 284.997 86.808 284.754 86.8317 286.616C86.8364 287.073 86.8364 287.53 86.8317 287.987C86.8127 289.596 87.0169 289.406 85.4642 289.41C83.1849 289.42 80.9057 289.41 78.6312 289.415C78.4032 289.415 78.1753 289.434 77.9474 289.41C77.4298 289.358 77.3016 289.615 77.3111 290.082C77.3301 291.148 77.3539 292.215 77.3016 293.277C77.2731 293.92 77.558 294.029 78.1041 294.024C80.7632 294.005 83.4176 294.015 86.0767 294.02C86.3426 294.02 86.6085 294.029 86.8744 294.02C87.2591 294.005 87.4158 294.196 87.4158 294.572C87.411 295.753 87.411 296.929 87.411 298.11C87.411 298.386 87.2781 298.524 87.0026 298.524C86.8127 298.524 86.6228 298.529 86.4328 298.529C81.8364 298.529 77.2446 298.529 72.6482 298.529C71.6035 298.529 71.6652 298.576 71.6652 297.529C71.67 294.153 71.67 290.767 71.67 287.377Z" fill="#FF6600"/>
<path d="M103.418 276.236C106.3 276.236 109.183 276.231 112.065 276.24C112.934 276.245 112.943 276.259 112.953 277.131C112.962 278.197 112.939 279.259 112.962 280.326C112.977 280.83 112.772 280.973 112.298 280.968C110.631 280.949 108.959 280.964 107.293 280.959C106.262 280.959 106.324 280.94 106.324 281.973C106.324 287.068 106.324 292.163 106.324 297.253C106.324 297.519 106.315 297.786 106.324 298.052C106.338 298.381 106.205 298.538 105.863 298.538C104.235 298.533 102.601 298.533 100.973 298.538C100.626 298.538 100.502 298.371 100.517 298.048C100.526 297.781 100.517 297.514 100.517 297.248C100.517 292.305 100.517 287.363 100.517 282.421C100.517 282.192 100.498 281.964 100.521 281.735C100.583 281.159 100.379 280.926 99.7665 280.94C98.2517 280.978 96.7323 280.954 95.2128 280.949C94.9468 280.949 94.6809 280.935 94.415 280.949C94.0352 280.968 93.869 280.811 93.8737 280.421C93.8832 279.245 93.8879 278.064 93.869 276.888C93.8595 276.393 94.0731 276.217 94.548 276.226C95.4217 276.245 96.2907 276.231 97.1644 276.231C99.2489 276.236 101.333 276.236 103.418 276.236Z" fill="#FF6600"/>
<path d="M316.28 201.991C316.28 200.696 316.318 199.4 316.242 198.11C316.157 196.753 316.157 195.401 315.72 194.058C314.642 190.758 313.123 187.74 310.748 185.183C310.568 184.988 310.43 184.759 310.259 184.554C308.944 182.969 308.412 181.131 308.289 179.088C308.127 176.431 308.151 173.77 307.966 171.108C307.505 164.575 305.321 158.781 301.218 153.648C298.578 150.348 295.696 147.272 292.885 144.13C291.261 142.316 289.808 140.364 288.379 138.397C287.704 137.464 287.742 137.292 288.587 136.483C288.725 136.35 288.863 136.221 289.015 136.107C290.382 135.078 291.769 134.088 293.246 133.217C294.841 132.274 296.555 131.76 298.412 131.607C301.138 131.384 303.877 131.493 306.598 131.188C308.678 130.955 310.729 130.622 312.681 129.817C314.457 129.084 315.578 127.827 315.957 125.898C316.37 123.789 316.465 121.675 316.28 119.547C316.209 118.713 315.986 117.899 315.511 117.185C314.4 115.504 313.009 114.142 311.157 113.29C310.217 112.857 309.257 112.6 308.203 112.571C304.177 112.466 300.145 112.662 296.133 112.457C293.483 112.324 291.527 113.323 289.784 115.104C289.49 115.404 289.191 115.695 288.91 116.004C287.643 117.409 286.94 119.032 286.878 120.951C286.84 122.094 286.883 123.232 286.859 124.375C286.835 125.627 286.778 126.879 286.27 128.065C285.838 129.074 285.007 129.431 284.005 129.507C283.046 129.579 282.296 129.222 281.84 128.35C281.489 127.679 281.113 127.013 280.81 126.317C279.057 122.318 277.296 118.318 275.586 114.3C274.637 112.062 273.711 109.814 272.889 107.524C272.338 105.981 272.457 104.543 273.312 103.158C273.872 102.253 274.399 101.329 274.998 100.449C280.582 92.2065 286.379 84.1121 291.916 75.8415C294.623 71.799 297.41 67.8137 300.288 63.8903C300.71 63.3142 301.185 62.7523 301.29 62C301.214 62 301.138 62 301.062 62C300.041 62.7714 298.991 63.5046 298.032 64.3617C294.509 67.4947 291.166 70.8134 287.832 74.1464C282.163 79.8173 276.546 85.5405 271.317 91.6256C266.389 97.3583 261.688 103.282 257.025 109.233C251.284 116.566 245.657 123.979 240.32 131.612C232.67 142.54 225.358 153.691 218.088 164.875C214.36 170.608 210.652 176.355 207.28 182.312C201.492 192.53 196.283 203.048 190.984 213.518C188.928 217.584 187.066 221.751 184.901 225.764C183.961 227.507 182.859 229.14 181.506 230.602C179.459 232.816 177.133 234.706 174.796 236.592C172.493 238.454 170.095 240.196 167.864 242.149C167.55 242.425 167.242 242.71 166.99 243.044C166.648 243.491 166.762 243.729 167.318 243.753C167.887 243.777 168.457 243.763 169.027 243.763C201.302 243.701 233.572 243.682 265.847 243.763C267.329 243.767 268.806 243.777 270.287 243.896C271.783 244.015 273.378 245.248 273.848 246.667C274.091 247.4 273.882 247.948 273.198 248.277C272.894 248.419 272.552 248.491 272.22 248.562C271.213 248.772 270.187 248.781 269.162 248.796C267.908 248.815 266.655 248.862 265.429 249.129C264.166 249.405 263.777 249.867 263.625 251.129C263.578 251.505 263.549 251.89 263.578 252.267C263.673 253.4 263.758 254.538 263.948 255.666C264.774 260.528 266.958 264.575 271.042 267.441C273.948 269.479 277.111 270.869 280.753 270.879C283.982 270.889 287.206 270.936 290.435 270.931C294.651 270.927 298.863 270.984 303.075 270.865C304.366 270.827 305.525 270.474 306.594 269.746C310.435 267.127 313.303 263.799 314.851 259.313C315.843 256.438 316.38 253.581 316.366 250.524C316.276 234.335 316.299 218.16 316.28 201.991ZM299.419 191.235C299.414 192.296 299.305 193.358 299.286 194.425C299.271 195.144 299.02 195.758 298.578 196.306C296.75 198.553 294.452 199.934 291.522 200.181C290.273 200.286 289.02 200.291 287.766 200.291C279.798 200.291 271.826 200.291 263.858 200.291C254.826 200.291 245.795 200.296 236.763 200.286C236.084 200.286 235.4 200.229 234.721 200.162C233.653 200.062 233.629 200.053 233.492 198.958C233.135 196.106 233.757 193.458 235.13 190.949C236.564 188.33 238.534 186.221 240.989 184.535C244.403 182.193 247.974 180.112 251.54 178.026C256.711 174.998 261.911 172.027 267.258 169.313C268.373 168.746 269.523 168.256 270.657 167.727C273.364 166.466 276.275 166.209 279.195 166.037C284.39 165.732 289.589 165.828 294.784 165.794C295.962 165.79 296.722 166.256 297.486 167.123C298.963 168.794 299.476 170.675 299.452 172.865C299.385 178.988 299.433 185.111 299.419 191.235Z" fill="#0D0B3C"/>
<path d="M108.086 158.081C113.713 154.343 119.306 150.548 125.019 146.934C126.847 145.777 128.675 144.62 130.574 143.587C131.595 143.03 132.616 143.044 133.599 143.663C134.14 144.006 134.663 144.396 135.156 144.811C138.775 147.844 142.175 151.115 145.18 154.762C153.158 164.437 159.644 175.036 164.606 186.568C165.898 189.568 167.146 192.592 168.424 195.596C168.637 196.101 168.789 196.653 169.274 197.063C169.582 196.558 169.858 196.106 170.128 195.648C173.186 190.525 176.216 185.388 179.302 180.279C191.938 159.371 206.269 139.692 222.309 121.285C229.997 112.466 237.831 103.758 246.179 95.5395C249.323 92.4446 252.376 89.2687 255.462 86.1166C255.885 85.6881 256.327 85.2691 256.578 84.693C256.146 84.2692 255.591 84.1121 255.063 83.9121C253.786 83.4264 252.466 83.0741 251.137 82.7646C245.738 81.5076 240.258 80.7362 234.773 79.9792C228.567 79.1221 222.333 78.5269 216.079 78.2746C210.504 78.046 204.925 77.8651 199.341 77.8032C188.823 77.6937 178.305 77.6841 167.792 77.9127C158.718 78.1079 149.653 78.365 140.589 78.8412C133.233 79.2268 125.887 79.6792 118.594 80.7267C114.577 81.3028 110.598 82.0599 106.699 83.2264C101.875 84.6692 97.981 87.4022 95.0037 91.4685C93.6077 93.373 92.3494 95.3633 91.2098 97.425C86.4423 106.062 82.4822 115.057 79.182 124.351C78.9019 125.137 78.5837 125.913 78.313 126.703C77.6055 128.755 75.7869 129.284 73.878 128.579C72.3585 128.017 71.6035 126.879 71.4041 125.322C71.2854 124.375 71.3139 123.422 71.3424 122.47C71.3804 121.066 71.4611 119.661 71.2047 118.261C70.8153 116.142 69.6899 114.48 68.1087 113.081C66.8931 112.005 65.4116 111.99 63.9253 111.947C63.4695 111.933 63.0136 111.943 62.5578 111.943C60.1266 111.957 57.7002 111.976 55.269 111.985C53.3696 111.995 51.4702 112 49.5756 111.995C48.3315 111.99 47.2774 112.4 46.4227 113.319C45.8766 113.9 45.3068 114.461 44.7607 115.042C41.9876 117.975 41.1662 122.165 42.9278 126.155C43.6021 127.684 44.7037 128.674 46.2992 129.141C47.6193 129.522 48.9631 129.727 50.3306 129.817C53.4028 130.017 56.4798 129.96 59.552 130.036C60.8199 130.069 62.0497 130.298 63.2036 130.803C65.573 131.841 67.7716 133.202 69.9321 134.607C71.0622 135.34 71.1714 136.031 70.8723 137.373C70.5161 138.968 69.6044 140.168 68.4743 141.287C64.8228 144.906 61.5416 148.848 58.3982 152.91C55.0648 157.219 52.7476 161.995 51.6697 167.347C50.8719 171.308 50.3876 175.303 50.4398 179.355C50.4588 180.74 50.0789 181.978 49.2622 183.088C48.7874 183.731 48.3125 184.369 47.8234 185.002C46.7313 186.416 45.6202 187.816 44.547 189.24C43.4881 190.644 42.9421 192.244 42.8946 194.011C42.8661 195.115 42.7806 196.215 42.7711 197.32C42.6857 214.67 42.7806 232.026 42.9706 249.376C42.999 251.848 43.0655 254.324 43.3742 256.78C43.7161 259.509 44.5708 262.037 46.2945 264.223C47.4531 265.689 48.7589 267.013 50.1882 268.217C52.0543 269.793 54.2243 270.589 56.6508 270.708C64.5094 271.084 72.3633 270.95 80.2219 270.636C84.0539 270.484 87.2353 268.927 89.8944 266.184C94.5052 261.428 95.3456 255.519 95.1367 249.267C95.1225 248.843 94.904 248.767 94.5526 248.781C93.8309 248.815 93.1091 248.815 92.3921 248.872C90.7254 249.005 89.054 249 87.3825 248.991C86.77 248.986 86.1669 248.905 85.5781 248.757C84.7994 248.562 84.5477 248.077 84.7614 247.296C84.8611 246.924 85.0321 246.586 85.2647 246.282C86.5943 244.539 88.2562 243.41 90.526 243.31C93.5602 243.177 96.5945 243.053 99.6335 243.072C106.314 243.115 113 243.148 119.681 243.168C130.693 243.196 141.704 243.206 152.716 243.22C153.02 243.22 153.324 243.21 153.628 243.215C154.008 243.225 154.207 243.072 154.145 242.668C154.103 242.368 154.065 242.063 153.998 241.768C153.704 240.43 153.319 239.116 152.835 237.835C150.921 232.75 149.003 227.664 147.051 222.593C142.075 209.647 136.002 197.239 128.665 185.464C123.926 177.855 118.152 171.127 111.343 165.304C109.757 163.947 108.071 162.704 106.433 161.404C105.659 160.79 105.616 160.509 106.191 159.719C106.699 159.028 107.388 158.543 108.086 158.081ZM114.691 183.345C115.968 184.164 117.241 185.002 118.38 186.011C121.158 188.468 123.1 191.444 123.907 195.101C124.226 196.529 124.097 197.977 123.998 199.42C123.964 199.905 123.698 200.186 123.214 200.239C122.725 200.291 122.236 200.353 121.742 200.353C112.521 200.358 103.299 200.358 94.0778 200.358C85.0843 200.358 76.0908 200.329 67.0973 200.372C64.1485 200.386 61.7221 199.267 59.6328 197.286C58.6973 196.396 58.0658 195.358 58.1038 193.982C58.1275 193.111 58.0183 192.235 58.0183 191.363C58.0088 185.278 58.0136 179.193 58.0088 173.108C58.0088 173.032 58.0183 172.956 58.0088 172.879C57.7192 170.365 58.7733 168.394 60.4352 166.632C60.9148 166.128 61.4277 165.861 62.1209 165.856C68.0042 165.842 73.8828 165.737 79.7613 166.137C82.8668 166.347 85.7871 167.151 88.5886 168.523C93.7359 171.041 98.7075 173.874 103.67 176.727C107.383 178.864 111.082 181.031 114.691 183.345Z" fill="#FF6600"/>
<path d="M316.902 298.276C315.259 294.739 313.626 291.196 311.983 287.658C310.335 284.116 308.669 280.578 307.045 277.026C306.784 276.45 306.475 276.226 305.848 276.264C304.941 276.317 304.02 276.345 303.122 276.259C302.282 276.178 301.94 276.569 301.617 277.264C298.507 284.021 295.364 290.758 292.239 297.51C292.101 297.81 291.864 298.086 291.911 298.552C293.678 298.552 295.444 298.543 297.211 298.557C297.629 298.562 297.695 298.252 297.809 297.991C298.308 296.843 298.801 295.691 299.281 294.534C299.442 294.143 299.647 293.948 300.112 293.948C302.994 293.972 305.877 293.967 308.759 293.948C309.2 293.943 309.438 294.091 309.604 294.505C310.06 295.629 310.601 296.724 311.019 297.862C311.233 298.438 311.551 298.576 312.116 298.567C313.745 298.533 315.378 298.548 317.007 298.543C317.007 298.467 317.007 298.391 317.007 298.314C316.974 298.3 316.912 298.3 316.902 298.276ZM301.418 289.577C302.415 287.22 303.379 284.954 304.443 282.445C305.501 284.916 306.47 287.182 307.496 289.577C305.387 289.577 303.498 289.577 301.418 289.577Z" fill="#0D0B3C"/>
<path d="M181.672 298.781C181.677 298.852 181.681 298.924 181.681 298.995C183.049 298.995 184.416 298.995 185.784 298.995C185.779 298.924 185.779 298.848 185.789 298.776C184.416 298.776 183.044 298.781 181.672 298.781Z" fill="#0D0B3C"/>
<path d="M232.48 298.786C232.476 298.857 232.48 298.924 232.49 298.995C233.705 298.995 234.921 298.995 236.137 298.995C236.146 298.924 236.146 298.852 236.141 298.786C234.916 298.786 233.696 298.786 232.48 298.786Z" fill="#0D0B3C"/>
<path d="M266.883 289.744C268.051 289.339 269.072 288.925 269.884 288.158C272.106 286.063 272.405 283.454 271.645 280.697C270.876 277.916 268.673 276.831 266.033 276.412C265.772 276.369 265.506 276.35 265.24 276.345C263.644 276.317 262.054 276.283 260.458 276.278C258.331 276.269 256.208 276.288 254.081 276.269C253.549 276.264 253.288 276.421 253.354 276.978C253.373 277.131 253.354 277.283 253.354 277.436C253.354 284.13 253.354 290.825 253.354 297.519C253.354 297.819 253.354 298.124 253.354 298.552C255.164 298.552 256.826 298.548 258.492 298.557C258.858 298.557 259.072 298.452 259.048 298.043C259.034 297.776 259.048 297.51 259.048 297.243C259.048 295.153 259.043 293.058 259.053 290.968C259.053 290.696 258.929 290.358 259.375 290.239C261.061 289.796 262.552 290.439 263.393 291.996C264.461 293.967 265.534 295.934 266.574 297.914C266.816 298.376 267.082 298.576 267.619 298.562C269.171 298.524 270.729 298.548 272.286 298.548C272.567 298.548 272.851 298.524 273.25 298.505C272.106 296.448 271.019 294.539 269.974 292.61C269.29 291.339 268.435 290.268 266.883 289.744ZM266.489 284.078C266.218 285.182 265.411 285.606 264.423 285.73C263.526 285.844 262.609 285.835 261.702 285.878C261.702 285.863 261.702 285.854 261.702 285.839C260.98 285.839 260.259 285.825 259.542 285.844C259.1 285.854 258.948 285.668 258.953 285.23C258.972 283.94 258.977 282.645 258.953 281.354C258.943 280.878 259.072 280.664 259.584 280.678C261.099 280.716 262.623 280.645 264.133 280.754C266.056 280.892 266.944 282.235 266.489 284.078Z" fill="#0D0B3C"/>
<path d="M237.11 276.259C235.306 275.879 233.482 275.855 231.678 276.221C227.494 277.069 224.778 279.564 223.653 283.697C222.983 286.163 222.988 288.677 223.662 291.144C224.698 294.934 227.115 297.395 230.918 298.438C231.431 298.576 231.953 298.671 232.471 298.786C233.691 298.205 234.911 298.21 236.132 298.786C236.464 298.71 236.797 298.633 237.129 298.557C240.97 297.7 243.539 295.41 244.76 291.658C245.453 289.525 245.51 287.325 245.22 285.111C244.627 280.497 241.64 277.221 237.11 276.259ZM239.081 291.091C238.259 293.239 236.554 294.41 234.27 294.396C231.982 294.381 230.258 293.215 229.522 291.02C228.715 288.611 228.724 286.154 229.536 283.749C230.249 281.645 231.915 280.516 234.104 280.473C236.474 280.426 238.169 281.502 239.024 283.602C239.522 284.821 239.631 286.101 239.641 287.401C239.631 288.653 239.536 289.901 239.081 291.091Z" fill="#0D0B3C"/>
<path d="M190.072 286.754C189.493 286.477 188.899 286.216 188.296 285.992C187.194 285.582 186.045 285.316 184.896 285.068C183.894 284.849 182.911 284.587 181.966 284.178C180.442 283.516 180.756 281.773 181.748 281.154C182.408 280.74 183.116 280.526 183.89 280.483C186.041 280.354 188.021 280.897 189.882 281.945C190.167 282.106 190.404 282.373 190.851 282.392C191.283 281.392 191.72 280.392 192.152 279.383C192.593 278.354 192.617 278.302 191.663 277.797C187.968 275.85 184.108 275.388 180.115 276.731C178.652 277.221 177.408 278.093 176.473 279.359C174.094 282.568 175.1 286.749 178.671 288.482C179.493 288.882 180.347 289.191 181.23 289.42C182.479 289.739 183.738 290.025 184.982 290.353C185.642 290.525 186.302 290.725 186.867 291.129C187.888 291.867 187.845 293.086 186.777 293.762C186.387 294.01 185.955 294.143 185.504 294.229C183.628 294.6 181.81 294.334 179.996 293.829C178.828 293.501 177.759 292.948 176.62 292.344C176.102 293.51 175.608 294.61 175.124 295.715C174.811 296.434 174.811 296.453 175.499 296.853C177.057 297.767 178.766 298.252 180.528 298.576C180.822 298.519 181.098 298.548 181.354 298.691C181.392 298.705 181.43 298.729 181.468 298.752C181.539 298.748 181.606 298.752 181.672 298.781C183.044 298.195 184.417 298.205 185.789 298.776C186.197 298.695 186.61 298.619 187.019 298.538C188.372 298.262 189.611 297.757 190.77 296.981C193.819 294.943 194.673 288.958 190.072 286.754Z" fill="#0D0B3C"/>
<path d="M150.665 276.255C149.839 276.212 149.473 276.526 149.169 277.255C147.355 281.559 145.494 285.844 143.637 290.134C143.49 290.468 143.457 290.882 143.049 291.106C142.925 290.82 142.806 290.548 142.688 290.272C140.831 285.944 138.946 281.626 137.137 277.278C136.8 276.469 136.386 276.207 135.541 276.255C134.254 276.326 132.958 276.264 131.671 276.278C131.386 276.283 131.059 276.155 130.788 276.517C131.481 278.045 132.184 279.597 132.892 281.149C135.399 286.687 137.911 292.22 140.404 297.762C140.646 298.3 140.883 298.614 141.558 298.567C142.578 298.491 143.609 298.51 144.63 298.562C145.223 298.591 145.48 298.338 145.708 297.824C148.827 290.896 151.971 283.982 155.1 277.059C155.2 276.836 155.423 276.617 155.157 276.274C153.69 276.274 152.175 276.331 150.665 276.255Z" fill="#0D0B3C"/>
<path d="M218.093 277.078C218.083 276.302 218.074 276.298 217.252 276.274C217.138 276.269 217.024 276.274 216.91 276.274C211.331 276.274 205.751 276.274 200.172 276.279C199.797 276.279 199.412 276.202 198.971 276.421C198.971 277.745 198.98 279.112 198.966 280.473C198.961 280.897 199.156 280.992 199.521 280.969C199.749 280.954 199.977 280.969 200.205 280.969C201.763 280.969 203.32 280.983 204.873 280.959C205.386 280.949 205.68 281.059 205.604 281.645C205.576 281.868 205.599 282.102 205.599 282.33C205.599 287.316 205.599 292.296 205.599 297.281C205.599 297.548 205.614 297.814 205.599 298.081C205.58 298.419 205.732 298.552 206.065 298.552C207.698 298.548 209.327 298.543 210.96 298.552C211.364 298.557 211.492 298.367 211.468 297.995C211.45 297.729 211.468 297.462 211.468 297.195C211.468 292.096 211.468 287.001 211.468 281.902C211.468 280.892 211.454 280.969 212.39 280.969C214.061 280.973 215.728 280.949 217.399 280.978C217.941 280.988 218.131 280.826 218.112 280.269C218.069 279.212 218.102 278.145 218.093 277.078Z" fill="#0D0B3C"/>
<path d="M166.302 276.279C164.977 276.264 163.647 276.269 162.322 276.274C161.344 276.279 161.335 276.283 161.335 277.274C161.33 281.378 161.335 285.482 161.335 289.582C161.335 292.32 161.349 295.053 161.325 297.791C161.321 298.372 161.463 298.586 162.08 298.562C163.443 298.514 164.811 298.552 166.173 298.548C167.095 298.543 167.104 298.538 167.104 297.634C167.109 294.253 167.104 290.872 167.104 287.487C167.104 284.03 167.109 280.573 167.099 277.117C167.095 276.302 167.08 276.288 166.302 276.279Z" fill="#0D0B3C"/>
<path d="M285.891 296.338C285.891 289.991 285.891 283.644 285.891 277.297C285.891 276.288 285.881 276.279 284.922 276.274C283.631 276.269 282.344 276.264 281.052 276.274C280.126 276.279 280.117 276.288 280.112 277.207C280.107 280.626 280.112 284.049 280.112 287.468C280.112 290.887 280.107 294.31 280.117 297.729C280.117 298.529 280.131 298.543 280.914 298.548C282.315 298.557 283.721 298.529 285.122 298.562C285.687 298.576 285.962 298.448 285.9 297.819C285.853 297.329 285.891 296.834 285.891 296.338Z" fill="#0D0B3C"/>
<path d="M180.533 298.576C180.808 298.838 181.131 298.838 181.468 298.757C181.43 298.729 181.392 298.714 181.354 298.695C181.093 298.586 180.784 298.724 180.533 298.576Z" fill="#0D0B3C"/>
</svg>
