<svg width="118" height="117" viewBox="0 0 118 117" fill="none" xmlns="http://www.w3.org/2000/svg">
<g clip-path="url(#clip0)">
<path d="M99.9396 16.921C94.6035 11.5355 88.2489 7.2658 81.2461 4.36078C74.2433 1.45575 66.7324 -0.0265106 59.151 0.000358859C27.3829 0.000358859 1.49272 25.8833 1.46362 57.6587C1.46362 67.8358 4.12612 77.7365 9.15285 86.5024L0.998047 116.394L31.5804 108.377C40.0407 112.981 49.519 115.395 59.151 115.397H59.1801C90.9555 115.397 116.838 89.514 116.868 57.7096C116.875 50.1298 115.382 42.6235 112.476 35.6231C109.569 28.6227 105.306 22.2666 99.9323 16.921H99.9396ZM59.151 105.635C50.5597 105.637 42.1263 103.326 34.7375 98.9419L32.9916 97.8944L14.8488 102.652L19.6937 84.9529L18.5589 83.127C13.7563 75.491 11.2163 66.6502 11.2334 57.6296C11.2334 31.2519 32.7443 9.73374 59.1801 9.73374C65.478 9.72245 71.7159 10.9579 77.534 13.3688C83.3522 15.7797 88.6356 19.3184 93.0797 23.781C97.5392 28.2261 101.075 33.5102 103.482 39.3284C105.889 45.1467 107.12 51.3839 107.105 57.6805C107.076 84.1527 85.565 105.635 59.151 105.635ZM85.4486 69.7417C84.0155 69.0216 76.9374 65.537 75.6061 65.0424C74.2821 64.5695 73.3146 64.3222 72.3689 65.7625C71.4014 67.1956 68.6371 70.4619 67.8078 71.4003C66.9785 72.3679 66.1201 72.477 64.6797 71.7641C63.2466 71.0366 58.5982 69.5235 53.0986 64.5986C48.8066 60.7795 45.9331 56.051 45.0747 54.6179C44.2454 53.1775 44.9947 52.4064 45.7149 51.6862C46.3478 51.0461 47.148 49.9985 47.8681 49.1692C48.5956 48.3399 48.8357 47.7289 49.3085 46.7686C49.7814 45.7938 49.5559 44.9645 49.1994 44.2443C48.8357 43.5242 45.9622 36.4169 44.7474 33.5507C43.5834 30.7209 42.3977 31.1137 41.5102 31.0774C40.6809 31.0264 39.7133 31.0264 38.7458 31.0264C38.0152 31.0446 37.2962 31.2136 36.634 31.5228C35.9717 31.832 35.3806 32.2747 34.8976 32.8233C33.5736 34.2636 29.8708 37.7481 29.8708 44.8554C29.8708 51.9627 35.0358 58.7935 35.7633 59.761C36.4762 60.7285 45.904 75.2704 60.3731 81.5266C63.7922 83.0178 66.4838 83.8981 68.5862 84.5673C72.0416 85.6731 75.1624 85.5058 77.6503 85.1493C80.4146 84.7274 86.1688 81.6575 87.3837 78.2894C88.5767 74.914 88.5767 72.0332 88.213 71.4294C87.8565 70.8184 86.889 70.4619 85.4486 69.7417Z" fill="#FF6600"/>
</g>
<defs>
<clipPath id="clip0">
<rect width="116.393" height="116.393" fill="white" transform="translate(0.998047)"/>
</clipPath>
</defs>
</svg>
